<mxfile host="app.diagrams.net" modified="2022-08-22T12:47:03.304Z" agent="5.0 (Macintosh; Intel Mac OS X 10_15_7) AppleWebKit/537.36 (KHTML, like Gecko) Chrome/104.0.0.0 Safari/537.36" etag="OE4IeqHqWduJnoCO19MQ" version="20.2.0" type="github">
  <diagram id="6a731a19-8d31-9384-78a2-239565b7b9f0" name="Page-1">
    <mxGraphModel dx="1306" dy="810" grid="1" gridSize="10" guides="1" tooltips="1" connect="1" arrows="1" fold="1" page="1" pageScale="1" pageWidth="1169" pageHeight="827" background="none" math="0" shadow="0">
      <root>
        <mxCell id="0" />
        <mxCell id="1" parent="0" />
        <mxCell id="PI2YtOs4LVd3nIYTA0Nr-58" value="" style="edgeStyle=orthogonalEdgeStyle;rounded=0;orthogonalLoop=1;jettySize=auto;html=1;fontSize=16;" edge="1" parent="1" source="PI2YtOs4LVd3nIYTA0Nr-56" target="PI2YtOs4LVd3nIYTA0Nr-57">
          <mxGeometry relative="1" as="geometry" />
        </mxCell>
        <mxCell id="PI2YtOs4LVd3nIYTA0Nr-56" value="异常开始" style="strokeWidth=2;html=1;shape=mxgraph.flowchart.start_1;whiteSpace=wrap;fontSize=16;fillColor=#fff2cc;strokeColor=#d6b656;" vertex="1" parent="1">
          <mxGeometry x="490" y="70" width="100" height="60" as="geometry" />
        </mxCell>
        <mxCell id="PI2YtOs4LVd3nIYTA0Nr-60" value="" style="edgeStyle=orthogonalEdgeStyle;rounded=0;orthogonalLoop=1;jettySize=auto;html=1;fontSize=16;" edge="1" parent="1" source="PI2YtOs4LVd3nIYTA0Nr-57">
          <mxGeometry relative="1" as="geometry">
            <mxPoint x="540" y="350" as="targetPoint" />
          </mxGeometry>
        </mxCell>
        <mxCell id="PI2YtOs4LVd3nIYTA0Nr-62" value="" style="edgeStyle=orthogonalEdgeStyle;rounded=0;orthogonalLoop=1;jettySize=auto;html=1;fontSize=16;" edge="1" parent="1" source="PI2YtOs4LVd3nIYTA0Nr-57" target="PI2YtOs4LVd3nIYTA0Nr-61">
          <mxGeometry relative="1" as="geometry" />
        </mxCell>
        <mxCell id="PI2YtOs4LVd3nIYTA0Nr-57" value="应用负责人“接诊”" style="whiteSpace=wrap;html=1;strokeWidth=2;fontSize=16;" vertex="1" parent="1">
          <mxGeometry x="480" y="210" width="120" height="60" as="geometry" />
        </mxCell>
        <mxCell id="PI2YtOs4LVd3nIYTA0Nr-64" value="接诊人能处理" style="edgeStyle=orthogonalEdgeStyle;rounded=0;orthogonalLoop=1;jettySize=auto;html=1;fontSize=16;" edge="1" parent="1" source="PI2YtOs4LVd3nIYTA0Nr-61" target="PI2YtOs4LVd3nIYTA0Nr-63">
          <mxGeometry relative="1" as="geometry" />
        </mxCell>
        <mxCell id="PI2YtOs4LVd3nIYTA0Nr-66" value="异常分类不对" style="edgeStyle=orthogonalEdgeStyle;rounded=0;orthogonalLoop=1;jettySize=auto;html=1;fontSize=16;" edge="1" parent="1" source="PI2YtOs4LVd3nIYTA0Nr-61" target="PI2YtOs4LVd3nIYTA0Nr-65">
          <mxGeometry relative="1" as="geometry" />
        </mxCell>
        <mxCell id="PI2YtOs4LVd3nIYTA0Nr-68" value="接诊人处理不了" style="edgeStyle=orthogonalEdgeStyle;rounded=0;orthogonalLoop=1;jettySize=auto;html=1;fontSize=16;" edge="1" parent="1" source="PI2YtOs4LVd3nIYTA0Nr-61" target="PI2YtOs4LVd3nIYTA0Nr-67">
          <mxGeometry relative="1" as="geometry" />
        </mxCell>
        <mxCell id="PI2YtOs4LVd3nIYTA0Nr-61" value="异常分析" style="rhombus;whiteSpace=wrap;html=1;strokeWidth=2;fontSize=16;" vertex="1" parent="1">
          <mxGeometry x="490" y="340" width="100" height="80" as="geometry" />
        </mxCell>
        <mxCell id="PI2YtOs4LVd3nIYTA0Nr-71" value="" style="edgeStyle=orthogonalEdgeStyle;rounded=0;orthogonalLoop=1;jettySize=auto;html=1;fontSize=16;" edge="1" parent="1" source="PI2YtOs4LVd3nIYTA0Nr-63" target="PI2YtOs4LVd3nIYTA0Nr-70">
          <mxGeometry relative="1" as="geometry" />
        </mxCell>
        <mxCell id="PI2YtOs4LVd3nIYTA0Nr-63" value="异常处理" style="whiteSpace=wrap;html=1;strokeWidth=2;fontSize=16;" vertex="1" parent="1">
          <mxGeometry x="480" y="510" width="120" height="60" as="geometry" />
        </mxCell>
        <mxCell id="PI2YtOs4LVd3nIYTA0Nr-73" style="edgeStyle=orthogonalEdgeStyle;rounded=0;orthogonalLoop=1;jettySize=auto;html=1;entryX=1;entryY=0.5;entryDx=0;entryDy=0;fontSize=16;fontColor=#30FFC8;" edge="1" parent="1" source="PI2YtOs4LVd3nIYTA0Nr-65" target="PI2YtOs4LVd3nIYTA0Nr-70">
          <mxGeometry relative="1" as="geometry">
            <Array as="points">
              <mxPoint x="870" y="700" />
            </Array>
          </mxGeometry>
        </mxCell>
        <mxCell id="PI2YtOs4LVd3nIYTA0Nr-65" value="调整异常分类" style="whiteSpace=wrap;html=1;fontSize=16;strokeWidth=2;" vertex="1" parent="1">
          <mxGeometry x="810" y="350" width="120" height="60" as="geometry" />
        </mxCell>
        <mxCell id="PI2YtOs4LVd3nIYTA0Nr-69" style="edgeStyle=orthogonalEdgeStyle;rounded=0;orthogonalLoop=1;jettySize=auto;html=1;entryX=0;entryY=0.5;entryDx=0;entryDy=0;fontSize=16;" edge="1" parent="1" source="PI2YtOs4LVd3nIYTA0Nr-67" target="PI2YtOs4LVd3nIYTA0Nr-63">
          <mxGeometry relative="1" as="geometry">
            <Array as="points">
              <mxPoint x="260" y="540" />
            </Array>
          </mxGeometry>
        </mxCell>
        <mxCell id="PI2YtOs4LVd3nIYTA0Nr-67" value="转办对应的开发" style="whiteSpace=wrap;html=1;fontSize=16;strokeWidth=2;" vertex="1" parent="1">
          <mxGeometry x="210" y="350" width="120" height="60" as="geometry" />
        </mxCell>
        <mxCell id="PI2YtOs4LVd3nIYTA0Nr-70" value="结束" style="ellipse;whiteSpace=wrap;html=1;fontSize=16;strokeWidth=2;fillColor=#f8cecc;strokeColor=#b85450;" vertex="1" parent="1">
          <mxGeometry x="480" y="670" width="120" height="60" as="geometry" />
        </mxCell>
      </root>
    </mxGraphModel>
  </diagram>
</mxfile>
